<mxfile host="Electron" modified="2024-01-07T22:18:52.173Z" agent="Mozilla/5.0 (Windows NT 10.0; Win64; x64) AppleWebKit/537.36 (KHTML, like Gecko) draw.io/22.1.11 Chrome/114.0.5735.289 Electron/25.9.8 Safari/537.36" etag="rKm4W4SKvOMq7cVCLqts" version="22.1.11" type="device">
  <diagram name="Page-1" id="h1wv7YuBIByx5lbEhNxt">
    <mxGraphModel dx="2314" dy="864" grid="1" gridSize="10" guides="1" tooltips="1" connect="1" arrows="1" fold="1" page="1" pageScale="1" pageWidth="850" pageHeight="1100" math="0" shadow="0">
      <root>
        <mxCell id="0" />
        <mxCell id="1" parent="0" />
        <mxCell id="s7GX4ieW1HJtfeC7UUf6-1" value="" style="rounded=0;whiteSpace=wrap;html=1;" parent="1" vertex="1">
          <mxGeometry x="80" y="60" width="610" height="890" as="geometry" />
        </mxCell>
        <mxCell id="s7GX4ieW1HJtfeC7UUf6-24" style="edgeStyle=orthogonalEdgeStyle;rounded=0;orthogonalLoop=1;jettySize=auto;html=1;entryX=0;entryY=0.5;entryDx=0;entryDy=0;exitX=0.5;exitY=0.5;exitDx=0;exitDy=0;exitPerimeter=0;" parent="1" source="s7GX4ieW1HJtfeC7UUf6-2" target="s7GX4ieW1HJtfeC7UUf6-8" edge="1">
          <mxGeometry relative="1" as="geometry" />
        </mxCell>
        <mxCell id="s7GX4ieW1HJtfeC7UUf6-25" style="edgeStyle=orthogonalEdgeStyle;rounded=0;orthogonalLoop=1;jettySize=auto;html=1;entryX=0;entryY=0.5;entryDx=0;entryDy=0;" parent="1" source="s7GX4ieW1HJtfeC7UUf6-2" target="s7GX4ieW1HJtfeC7UUf6-14" edge="1">
          <mxGeometry relative="1" as="geometry" />
        </mxCell>
        <mxCell id="s7GX4ieW1HJtfeC7UUf6-26" style="edgeStyle=orthogonalEdgeStyle;rounded=0;orthogonalLoop=1;jettySize=auto;html=1;" parent="1" source="s7GX4ieW1HJtfeC7UUf6-2" target="s7GX4ieW1HJtfeC7UUf6-13" edge="1">
          <mxGeometry relative="1" as="geometry" />
        </mxCell>
        <mxCell id="QLJJlyDZhzPryo1Bh-BB-1" style="edgeStyle=orthogonalEdgeStyle;rounded=0;orthogonalLoop=1;jettySize=auto;html=1;entryX=0;entryY=0.5;entryDx=0;entryDy=0;" parent="1" source="s7GX4ieW1HJtfeC7UUf6-2" target="s7GX4ieW1HJtfeC7UUf6-11" edge="1">
          <mxGeometry relative="1" as="geometry" />
        </mxCell>
        <mxCell id="s7GX4ieW1HJtfeC7UUf6-2" value="&lt;font style=&quot;font-size: 18px;&quot;&gt;teaching staff&lt;/font&gt;" style="shape=umlActor;verticalLabelPosition=bottom;verticalAlign=top;html=1;outlineConnect=0;" parent="1" vertex="1">
          <mxGeometry x="-50" y="260" width="40" height="80" as="geometry" />
        </mxCell>
        <mxCell id="QLJJlyDZhzPryo1Bh-BB-4" style="edgeStyle=orthogonalEdgeStyle;rounded=0;orthogonalLoop=1;jettySize=auto;html=1;entryX=0;entryY=0.5;entryDx=0;entryDy=0;" parent="1" source="s7GX4ieW1HJtfeC7UUf6-3" target="s7GX4ieW1HJtfeC7UUf6-19" edge="1">
          <mxGeometry relative="1" as="geometry" />
        </mxCell>
        <mxCell id="QLJJlyDZhzPryo1Bh-BB-5" style="edgeStyle=orthogonalEdgeStyle;rounded=0;orthogonalLoop=1;jettySize=auto;html=1;entryX=0;entryY=0.5;entryDx=0;entryDy=0;" parent="1" source="s7GX4ieW1HJtfeC7UUf6-3" target="s7GX4ieW1HJtfeC7UUf6-10" edge="1">
          <mxGeometry relative="1" as="geometry" />
        </mxCell>
        <mxCell id="QLJJlyDZhzPryo1Bh-BB-6" style="edgeStyle=orthogonalEdgeStyle;rounded=0;orthogonalLoop=1;jettySize=auto;html=1;" parent="1" source="s7GX4ieW1HJtfeC7UUf6-3" target="s7GX4ieW1HJtfeC7UUf6-12" edge="1">
          <mxGeometry relative="1" as="geometry" />
        </mxCell>
        <mxCell id="QLJJlyDZhzPryo1Bh-BB-7" style="edgeStyle=orthogonalEdgeStyle;rounded=0;orthogonalLoop=1;jettySize=auto;html=1;entryX=0;entryY=0.5;entryDx=0;entryDy=0;" parent="1" source="s7GX4ieW1HJtfeC7UUf6-3" target="s7GX4ieW1HJtfeC7UUf6-23" edge="1">
          <mxGeometry relative="1" as="geometry" />
        </mxCell>
        <mxCell id="s7GX4ieW1HJtfeC7UUf6-3" value="&lt;font style=&quot;font-size: 18px;&quot;&gt;program coordinator&lt;/font&gt;" style="shape=umlActor;verticalLabelPosition=bottom;verticalAlign=top;html=1;outlineConnect=0;" parent="1" vertex="1">
          <mxGeometry x="-50" y="600" width="40" height="80" as="geometry" />
        </mxCell>
        <mxCell id="QLJJlyDZhzPryo1Bh-BB-2" style="edgeStyle=orthogonalEdgeStyle;rounded=0;orthogonalLoop=1;jettySize=auto;html=1;" parent="1" source="s7GX4ieW1HJtfeC7UUf6-5" target="s7GX4ieW1HJtfeC7UUf6-9" edge="1">
          <mxGeometry relative="1" as="geometry" />
        </mxCell>
        <mxCell id="QLJJlyDZhzPryo1Bh-BB-3" style="edgeStyle=orthogonalEdgeStyle;rounded=0;orthogonalLoop=1;jettySize=auto;html=1;entryX=1;entryY=0.5;entryDx=0;entryDy=0;" parent="1" source="s7GX4ieW1HJtfeC7UUf6-5" target="s7GX4ieW1HJtfeC7UUf6-18" edge="1">
          <mxGeometry relative="1" as="geometry" />
        </mxCell>
        <mxCell id="s7GX4ieW1HJtfeC7UUf6-5" value="&lt;font style=&quot;font-size: 18px;&quot;&gt;quality manager&lt;/font&gt;" style="shape=umlActor;verticalLabelPosition=bottom;verticalAlign=top;html=1;outlineConnect=0;" parent="1" vertex="1">
          <mxGeometry x="770" y="450" width="40" height="80" as="geometry" />
        </mxCell>
        <mxCell id="s7GX4ieW1HJtfeC7UUf6-8" value="&lt;font style=&quot;font-size: 18px;&quot;&gt;add course specs&lt;/font&gt;" style="ellipse;whiteSpace=wrap;html=1;" parent="1" vertex="1">
          <mxGeometry x="120" y="80" width="110" height="80" as="geometry" />
        </mxCell>
        <mxCell id="s7GX4ieW1HJtfeC7UUf6-9" value="&lt;span style=&quot;font-size: 18px;&quot;&gt;manage programs&lt;/span&gt;" style="ellipse;whiteSpace=wrap;html=1;" parent="1" vertex="1">
          <mxGeometry x="550" y="410" width="110" height="80" as="geometry" />
        </mxCell>
        <mxCell id="s7GX4ieW1HJtfeC7UUf6-10" value="&lt;span style=&quot;font-size: 18px;&quot;&gt;manage courses&lt;/span&gt;" style="ellipse;whiteSpace=wrap;html=1;" parent="1" vertex="1">
          <mxGeometry x="120" y="580" width="110" height="80" as="geometry" />
        </mxCell>
        <mxCell id="s7GX4ieW1HJtfeC7UUf6-11" value="&lt;span style=&quot;font-size: 18px;&quot;&gt;view&amp;nbsp; questionare results&lt;/span&gt;" style="ellipse;whiteSpace=wrap;html=1;" parent="1" vertex="1">
          <mxGeometry x="115" y="350" width="120" height="90" as="geometry" />
        </mxCell>
        <mxCell id="s7GX4ieW1HJtfeC7UUf6-12" value="&lt;span style=&quot;font-size: 18px;&quot;&gt;Approve files&lt;/span&gt;" style="ellipse;whiteSpace=wrap;html=1;" parent="1" vertex="1">
          <mxGeometry x="115" y="680" width="110" height="80" as="geometry" />
        </mxCell>
        <mxCell id="s7GX4ieW1HJtfeC7UUf6-13" value="&lt;font style=&quot;font-size: 18px;&quot;&gt;add course map&lt;/font&gt;" style="ellipse;whiteSpace=wrap;html=1;" parent="1" vertex="1">
          <mxGeometry x="120" y="260" width="110" height="80" as="geometry" />
        </mxCell>
        <mxCell id="s7GX4ieW1HJtfeC7UUf6-14" value="&lt;span style=&quot;font-size: 18px;&quot;&gt;add course report&lt;/span&gt;" style="ellipse;whiteSpace=wrap;html=1;" parent="1" vertex="1">
          <mxGeometry x="120" y="170" width="110" height="80" as="geometry" />
        </mxCell>
        <mxCell id="s7GX4ieW1HJtfeC7UUf6-18" value="&lt;font style=&quot;font-size: 18px;&quot;&gt;manage users&amp;nbsp;&lt;/font&gt;" style="ellipse;whiteSpace=wrap;html=1;" parent="1" vertex="1">
          <mxGeometry x="550" y="520" width="115" height="90" as="geometry" />
        </mxCell>
        <mxCell id="s7GX4ieW1HJtfeC7UUf6-19" value="&lt;span style=&quot;font-size: 18px;&quot;&gt;Add educational degrees&lt;/span&gt;" style="ellipse;whiteSpace=wrap;html=1;" parent="1" vertex="1">
          <mxGeometry x="120" y="465" width="110" height="80" as="geometry" />
        </mxCell>
        <mxCell id="s7GX4ieW1HJtfeC7UUf6-21" value="&lt;span style=&quot;font-size: 18px;&quot;&gt;sign up&lt;/span&gt;" style="ellipse;whiteSpace=wrap;html=1;" parent="1" vertex="1">
          <mxGeometry x="350" y="480" width="110" height="80" as="geometry" />
        </mxCell>
        <mxCell id="s7GX4ieW1HJtfeC7UUf6-22" value="&lt;span style=&quot;font-size: 18px;&quot;&gt;login&lt;/span&gt;" style="ellipse;whiteSpace=wrap;html=1;" parent="1" vertex="1">
          <mxGeometry x="350" y="330" width="110" height="80" as="geometry" />
        </mxCell>
        <mxCell id="s7GX4ieW1HJtfeC7UUf6-23" value="&lt;span style=&quot;font-size: 18px;&quot;&gt;manage teaching staff Accounts&lt;/span&gt;" style="ellipse;whiteSpace=wrap;html=1;" parent="1" vertex="1">
          <mxGeometry x="110" y="790" width="115" height="90" as="geometry" />
        </mxCell>
      </root>
    </mxGraphModel>
  </diagram>
</mxfile>
